<?xml version="1.0" encoding="utf-8"?>
<!-- Generator: Adobe Illustrator 16.0.0, SVG Export Plug-In . SVG Version: 6.00 Build 0)  -->
<!DOCTYPE svg PUBLIC "-//W3C//DTD SVG 1.1//EN" "http://www.w3.org/Graphics/SVG/1.1/DTD/svg11.dtd">
<svg version="1.1" id="Layer_11" xmlns="http://www.w3.org/2000/svg" xmlns:xlink="http://www.w3.org/1999/xlink" x="0px" y="0px"
	 width="100px" height="100px" viewBox="0 0 100 100" enable-background="new 0 0 100 100" xml:space="preserve">
<path d="M38.573,41.444c-2.678,0-4.951,1.714-5.797,4.104c-0.227-0.644-0.357-1.331-0.357-2.052c0-3.398,2.755-6.154,6.154-6.154
	c2.333,0,4.363,1.299,5.407,3.213c0.282-5.036,1.032-9.436,1.797-12.814H4.148c-0.353,0-0.691,0.141-0.941,0.39
	c-0.25,0.25-0.39,0.589-0.39,0.941c0,0.313,0.283,31.486,24.717,49.42c0.234,0.172,0.511,0.258,0.788,0.258
	c0.276,0,0.553-0.086,0.787-0.258c7.47-5.482,12.684-12.351,16.323-19.208c-1.157-5.174-1.583-10.193-1.569-14.81
	C42.793,42.663,40.829,41.444,38.573,41.444z M12.867,45.548c-0.228-0.644-0.358-1.331-0.358-2.052c0-3.398,2.756-6.154,6.155-6.154
	c3.398,0,6.154,2.756,6.154,6.154c0,0.721-0.13,1.408-0.358,2.052c-0.846-2.39-3.118-4.104-5.796-4.104S13.713,43.158,12.867,45.548
	z M27.667,66.305c-4.972,0-9.002-2.756-9.002-6.154c0-0.721,0.19-1.409,0.523-2.052c1.238,2.389,4.562,4.103,8.479,4.103
	s7.243-1.714,8.48-4.103c0.333,0.643,0.523,1.331,0.523,2.052C36.67,63.549,32.639,66.305,27.667,66.305z M97.077,39.707
	c-0.14-0.33-0.406-0.588-0.739-0.719L51.326,21.342c-0.329-0.129-0.695-0.121-1.019,0.02c-0.323,0.142-0.578,0.405-0.707,0.734
	c-0.114,0.291-11.229,29.418,4.974,55.031c0.155,0.246,0.381,0.427,0.639,0.527c0.258,0.102,0.546,0.123,0.828,0.048
	c28.563-7.584,40.918-36.672,41.04-36.965C97.218,40.407,97.216,40.036,97.077,39.707z M54.857,35.243
	c0.263-0.671,0.635-1.264,1.082-1.78c-0.084,2.533,1.406,4.959,3.899,5.937c2.493,0.978,5.235,0.21,6.894-1.705
	c-0.023,0.683-0.153,1.37-0.416,2.042c-1.241,3.164-4.812,4.723-7.977,3.482C55.176,41.979,53.616,38.408,54.857,35.243z
	 M53.039,58.294c1.286-3.146,6.06-4.171,10.663-2.29s7.291,5.957,6.005,9.104c-0.272,0.666-0.708,1.231-1.26,1.701
	c-0.242-2.68-2.67-5.524-6.297-7.007c-3.626-1.481-7.353-0.653-9.402,1.09C52.683,60.171,52.766,58.962,53.039,58.294z
	 M84.852,47.003c-1.24,3.164-4.812,4.724-7.976,3.483c-3.165-1.241-4.724-4.812-3.483-7.977c0.263-0.671,0.635-1.264,1.082-1.779
	c-0.084,2.532,1.406,4.958,3.899,5.936c2.494,0.978,5.235,0.211,6.895-1.705C85.245,45.644,85.115,46.331,84.852,47.003z"/>
</svg>
