<?xml version="1.0" encoding="utf-8"?>
<!-- Generator: Adobe Illustrator 16.0.0, SVG Export Plug-In . SVG Version: 6.00 Build 0)  -->
<!DOCTYPE svg PUBLIC "-//W3C//DTD SVG 1.1//EN" "http://www.w3.org/Graphics/SVG/1.1/DTD/svg11.dtd">
<svg version="1.1" id="Layer_1" xmlns="http://www.w3.org/2000/svg" xmlns:xlink="http://www.w3.org/1999/xlink" x="0px" y="0px"
	 width="80px" height="80px" viewBox="0 0 500 500" enable-background="new 0 0 500 500" xml:space="preserve">
<g>
	<path d="M414.678,178.646c-23.596,2.854-66.693-2.1-50.453-26.881c7.576-4.412,15.119-7.908,18.537-7.908
		c6.779,0,12.275-5.496,12.275-12.275c0-6.781-5.496-12.277-12.275-12.277c-10.023,0-22.74,6.27-32.242,11.971
		c-7.828-3.873-12.576-15.551-12.576-15.551H50L28.457,95.66v18.016H7.992v66.506h148.291c22.467,0,57.717,12.479,60.912,46.105
		c-0.357,2.428-0.598,4.885-0.598,7.391c0,33.115,32.107,60.057,71.57,60.057c22.572,0,42.738-8.813,55.867-22.547
		c0.785-0.822,1.498-1.684,2.229-2.543l0.006,0.031c0,0,0.031-0.066,0.043-0.084C367.162,191.941,414.678,178.646,414.678,178.646z
		 M256.475,136.695h58.316c4.447,0,8.059,3.607,8.059,8.057c0,4.447-3.611,8.057-8.059,8.057h-58.316
		c-4.449,0-8.057-3.609-8.057-8.057C248.418,140.303,252.025,136.695,256.475,136.695z M256.475,163.551h58.316
		c4.447,0,8.059,3.609,8.059,8.057c0,4.449-3.611,8.057-8.059,8.057h-58.316c-4.449,0-8.057-3.607-8.057-8.057
		C248.418,167.16,252.025,163.551,256.475,163.551z M288.168,266.301c-23.924,0-44.139-14.938-44.139-32.623
		c0-17.684,20.215-32.629,44.139-32.629c5.924,0,11.619,0.922,16.84,2.57c-5.508,12.529-15.322,28.943-25.256,30.143
		c-5.047,0.611-8.645,5.203-8.033,10.252c0.564,4.67,4.537,8.1,9.131,8.1c0.371,0,0.744-0.02,1.121-0.066
		c19.674-2.387,32.875-25.299,39.295-39.65c6.822,5.768,11.043,13.23,11.043,21.281
		C332.309,251.363,312.094,266.301,288.168,266.301z"/>
	<path d="M424.393,188.357c-54.221,16.883-64.455,83.389-64.455,83.389c21.648,2.373,25.58,78.783,25.58,78.783
		c-7.266,38.59,60.994,89.309,93.615,17.898C523.586,271.119,439.908,191.318,424.393,188.357z"/>
</g>
</svg>
