<?xml version="1.0" encoding="iso-8859-1"?>
<!-- Generator: Adobe Illustrator 16.0.4, SVG Export Plug-In . SVG Version: 6.00 Build 0)  -->
<!DOCTYPE svg PUBLIC "-//W3C//DTD SVG 1.1//EN" "http://www.w3.org/Graphics/SVG/1.1/DTD/svg11.dtd">
<svg version="1.1" id="Capa_1" xmlns="http://www.w3.org/2000/svg" xmlns:xlink="http://www.w3.org/1999/xlink" x="0px" y="0px"
	 width="60px" height="40px" viewBox="0 0 20 16" style="enable-background:new 0 0 20 16;" xml:space="preserve">
<path style="fill:#010002;" d="M16.33,8.588c-0.277,0-0.532,0.153-0.662,0.398l-1.08,2.034l-1.33-3.896
	c-0.102-0.294-0.373-0.496-0.684-0.507c-0.32-0.009-0.597,0.172-0.718,0.458l-0.912,2.167l-1.44-8.626
	C9.438,0.254,9.098-0.021,8.75,0.001c-0.369,0.008-0.677,0.25-0.727,0.616L6.752,10.627L5.721,5.254
	C5.66,4.937,5.401,4.694,5.08,4.652C4.765,4.61,4.447,4.779,4.308,5.072L2.621,8.588H0v1.5h3.093c0.288,0,0.552-0.166,0.677-0.426
	l0.906-1.891l1.463,7.62C6.207,15.745,6.516,16,6.875,16c0.006,0,0.014,0,0.02,0c0.367-0.01,0.674-0.284,0.724-0.647L8.87,5.515
	l1.05,6.477c0.059,0.326,0.326,0.575,0.655,0.611c0.333,0.032,0.644-0.149,0.773-0.455l1.126-2.675l1.254,3.672
	c0.098,0.283,0.354,0.481,0.65,0.505c0.299,0.017,0.582-0.132,0.723-0.396l1.68-3.166H20v-1.5H16.33z"/>
<g>
</g>
<g>
</g>
<g>
</g>
<g>
</g>
<g>
</g>
<g>
</g>
<g>
</g>
<g>
</g>
<g>
</g>
<g>
</g>
<g>
</g>
<g>
</g>
<g>
</g>
<g>
</g>
<g>
</g>
</svg>
