<?xml version="1.0" encoding="utf-8"?>
<!-- Generator: Adobe Illustrator 16.0.0, SVG Export Plug-In . SVG Version: 6.00 Build 0)  -->
<!DOCTYPE svg PUBLIC "-//W3C//DTD SVG 1.1//EN" "http://www.w3.org/Graphics/SVG/1.1/DTD/svg11.dtd">
<svg version="1.1" id="Layer_1" xmlns="http://www.w3.org/2000/svg" xmlns:xlink="http://www.w3.org/1999/xlink" x="0px" y="0px"
	 width="200px" height="200px" viewBox="0 0 200 200" enable-background="new 0 0 200 200" xml:space="preserve">
<g>
	<ellipse cx="105.8" cy="24.859" rx="16.159" ry="15.945"/>
	<path d="M174.492,2.299c-2.249-2.249-5.897-2.258-8.147-0.008L125.49,43.137H86.15L45.295,2.291
		c-2.25-2.249-5.897-2.246-8.147,0.004c-2.25,2.25-2.25,5.899,0,8.149l49.34,49.442l-0.031,131.134c0,4.771,3.868,8.641,8.642,8.641
		c4.772,0,8.64-3.87,8.64-8.642l0-65.271h4.156v65.271c0,4.772,3.875,8.642,8.648,8.642c4.772,0,8.647-3.869,8.647-8.642
		l-0.04-131.133l49.346-49.44C176.745,8.196,176.743,4.549,174.492,2.299z"/>
</g>
</svg>
