<?xml version="1.0" encoding="iso-8859-1"?>
<!-- Generator: Adobe Illustrator 17.1.0, SVG Export Plug-In . SVG Version: 6.00 Build 0)  -->
<!DOCTYPE svg PUBLIC "-//W3C//DTD SVG 1.1//EN" "http://www.w3.org/Graphics/SVG/1.1/DTD/svg11.dtd">
<svg version="1.1" id="Layer_1" xmlns="http://www.w3.org/2000/svg" xmlns:xlink="http://www.w3.org/1999/xlink" x="0px" y="0px"
	 viewBox="0 0 64 64" style="enable-background:new 0 0 64 64;" xml:space="preserve">
<path d="M17.437,34.219c0,0-6.375-1.75-5.375-8.875c0.281-3.812,3.906-4.031,3.969-5.031s-7.344,0.594-7.094,6.953
	s5.563,8.609,6.125,8.922c0.563,0.312-0.75,1.979-1.25,2.75s-1.896,4.771-1.396,7.667c-0.003,0.61-5.458,1.188-4.438,3.312
	c1.146,2.583,2.625,7.875,5.833,7.583s2.021-3.396-0.458-3.292c-2.479,0.104-2.458-3.604-1.25-4.083s3.646-1.521,4.146-3.25
	s2.438-3.083,4.75-2.312s3.729,1.188,2.562,4.708c-1.167,3.521-1.458,3.375,1.208,4.771c2.667,1.396,8.729,3.083,7.979,0.417
	c-0.75-2.667-2.271-2.021-3.042-1.875c-0.771,0.146-3.854,0.417-2.875-2.917c0.979-3.333,0.917-8.417,0.708-9.667
	c-0.208-1.25,1.062-0.062,3.167-0.812c2.104-0.75,5.667-2.167,5.729-2.312c0.063-0.146-0.521,7.417,1.438,7.417
	s1.917-3.5,2.167-8.417c0.25-2.958,1.958,0.25,3.667-0.208c1.708-0.458,6.125-2.625,8.792,0.5s4.573,4.625,5.745,3
	c1.172-1.625-0.62-3.583-2.328-3.958c-1.708-0.375-1.833-2.625-5.292-3.542s-6.083,0.125-6.125-4.958s-2.708-5.425-3.208-6.671
	c-0.5-1.246-1.333-4.079,3.625-4.787s4.75-1.25,4.75-1.583c0-0.333-3.958,0.375-4.417-1.25c-0.167-1.125,4.958-1.833,4.5-5.542
	c-0.544-1.329-3.958,0.542-4.458,0.75c-1.698,0.406-0.51-1.438-2.635-1.125s-4.531,2.812-6.406,2s-3.125-1.375-2.688,0.25
	c0,0-0.437,0.125-1.031,0.406c-0.594,0.281,1.562,2.188,1.812,2.531s1.198,5.229-0.885,7.938
	c-2.083,2.708-5.542,8.875-10.208,11.292C19.667,32.417,18.333,33.604,17.437,34.219z"/>
</svg>
