<?xml version="1.0" encoding="utf-8"?>
<!-- Generator: Adobe Illustrator 16.0.0, SVG Export Plug-In . SVG Version: 6.00 Build 0)  -->
<!DOCTYPE svg PUBLIC "-//W3C//DTD SVG 1.1//EN" "http://www.w3.org/Graphics/SVG/1.1/DTD/svg11.dtd">
<svg version="1.1" id="Layer_1" xmlns="http://www.w3.org/2000/svg" xmlns:xlink="http://www.w3.org/1999/xlink" x="0px" y="0px"
	 width="80px" height="80px" viewBox="0 0 512 512" enable-background="new 0 0 512 512" xml:space="preserve">
<path d="M475.342,285.422l-20.712-29.42l20.713-29.42c2.136-3.036,2.403-7.008,0.694-10.301c-1.708-3.294-5.11-5.361-8.822-5.361
	l-38.766-0.001c-2.636,0.001-5.164,1.048-7.029,2.911l-28.917,28.919l-120.993-0.001C267.456,138.624,215.996,56,153.312,56
	C87.989,56,34.845,145.72,34.845,256s53.144,200,118.466,200c62.684,0,114.143-82.621,118.199-186.744h120.993l28.918,28.918
	c1.863,1.863,4.392,2.911,7.027,2.91h38.767c3.712,0.001,7.113-2.066,8.822-5.361C477.749,292.43,477.478,288.458,475.342,285.422z
	 M169.812,413.796c-51.538,0-93.467-70.787-93.467-157.796s41.929-157.796,93.467-157.796c48.894,0,89.135,63.714,93.135,144.545
	h-57.12c-3.608-27.971-18.381-48.986-36.015-48.986c-20.329,0-36.868,27.919-36.868,62.237c0,34.32,16.539,62.241,36.868,62.241
	c17.633,0,32.406-21.015,36.015-48.985h57.12C258.944,350.084,218.705,413.796,169.812,413.796z"/>
</svg>
