<?xml version="1.0" encoding="iso-8859-1"?>
<!-- Generator: Adobe Illustrator 16.0.0, SVG Export Plug-In . SVG Version: 6.00 Build 0)  -->
<!DOCTYPE svg PUBLIC "-//W3C//DTD SVG 1.1//EN" "http://www.w3.org/Graphics/SVG/1.1/DTD/svg11.dtd">
<svg version="1.1" xmlns="http://www.w3.org/2000/svg" xmlns:xlink="http://www.w3.org/1999/xlink" x="0px" y="0px"
	 width="60px" height="60px" viewBox="0 0 28.902 28.9" style="enable-background:new 0 0 28.902 28.9;" xml:space="preserve"
	>
<g id="c19_health">
	<path id="_x3C_Compound_Path_x3E__5_" style="fill:#000000;" d="M24.783,5.724h-2.605V4.122C22.178,1.853,20.324,0,18.059,0h-7.211
		C8.582,0,6.725,1.853,6.725,4.122v1.603H4.123C1.854,5.724,0,7.293,0,9.559V24.78c0,2.266,1.854,4.12,4.123,4.12h20.66
		c2.266,0,4.119-1.854,4.119-4.12V9.559C28.902,7.293,27.049,5.724,24.783,5.724z M8.934,4.122c0-1.012,0.902-1.915,1.914-1.915
		h7.211c1.008,0,1.912,0.902,1.912,1.915v1.603H8.934V4.122z M21.074,20.07h-4.416v4.416h-4.412V20.07H7.83v-5.518h4.416V10.14
		h4.412v4.413h4.416V20.07z"/>
</g>
<g id="Capa_1">
</g>
</svg>
