<?xml version="1.0" encoding="utf-8"?>
<!-- Generator: Adobe Illustrator 16.0.0, SVG Export Plug-In . SVG Version: 6.00 Build 0)  -->
<!DOCTYPE svg PUBLIC "-//W3C//DTD SVG 1.1//EN" "http://www.w3.org/Graphics/SVG/1.1/DTD/svg11.dtd">
<svg version="1.1" id="Layer_1" xmlns="http://www.w3.org/2000/svg" xmlns:xlink="http://www.w3.org/1999/xlink" x="0px" y="0px"
	 width="80px" height="80px" viewBox="0 0 48 48" enable-background="new 0 0 48 48" xml:space="preserve">
<g>
	<g>
		<path d="M35.206,44.697c0,1.123-0.909,2.031-2.031,2.031s-2.031-0.908-2.031-2.031c0-1.121,0.909-4.031,2.031-4.031
			S35.206,43.576,35.206,44.697z"/>
	</g>
	<g>
		<path d="M25.206,44.697c0,1.123-0.909,2.031-2.031,2.031s-2.031-0.908-2.031-2.031c0-1.121,0.909-4.031,2.031-4.031
			S25.206,43.576,25.206,44.697z"/>
	</g>
	<g>
		<path d="M15.206,44.697c0,1.123-0.909,2.031-2.031,2.031s-2.031-0.908-2.031-2.031c0-1.121,0.909-4.031,2.031-4.031
			S15.206,43.576,15.206,44.697z"/>
	</g>
	<g>
		<path d="M30.206,34.697c0,1.123-0.909,2.031-2.031,2.031s-2.031-0.908-2.031-2.031c0-1.121,0.909-4.031,2.031-4.031
			S30.206,33.576,30.206,34.697z"/>
	</g>
	<g>
		<path d="M20.206,34.697c0,1.123-0.909,2.031-2.031,2.031s-2.031-0.908-2.031-2.031c0-1.121,0.909-4.031,2.031-4.031
			S20.206,33.576,20.206,34.697z"/>
	</g>
	<g>
		<path d="M46.732,11.533c0-3.424-2.775-6.199-6.199-6.199c-1.506,0-2.885,0.537-3.959,1.43C36.358,3.546,33.686,1,30.414,1
			c-2.53,0-4.703,1.522-5.659,3.699c-1.743-1.178-4.011-1.865-6.272-1.865c-6.028,0-11.083,4.887-11.083,10.916
			c0,0.008,0,0.016,0,0.023c-3,0.236-6.334,3.246-6.334,6.935c0,3.843,3.199,6.958,7.042,6.958c2.726,0,5.12-1.57,6.262-3.854
			c1.303,0.55,2.756,0.854,4.259,0.854c3.378,0,6.407-1.535,8.41-3.945c1.215,2.811,4.015,4.779,7.272,4.779
			c4.372,0,7.919-3.545,7.919-7.917c0-0.03-0.003-0.061-0.003-0.091C44.825,16.754,46.732,14.368,46.732,11.533z"/>
	</g>
</g>
</svg>
